# AST/ASF file generated using VICON BodyLanguage
# -----------------------------------------------
:version 1.10
:name VICON
:units
  mass 1.0
  length 0.45
  angle deg
:documentation
   .ast/.asf automatically generated from VICON data using
   VICON BodyBuilder and BodyLanguage model FoxedUp or BRILLIANT.MOD
:root
   order TX TY TZ RX RY RZ
   axis XYZ
   position 0 0 0  
   orientation 0 0 0 
:bonedata
  begin
     id 1 
     name lhipjoint
     direction 0.547975 -0.797114 0.253638 
     length 2.36201 
     axis 0 0 0  XYZ
  end
  begin
     id 2 
     name lfemur
     direction 0.34202 -0.939693 0  
     length 7.69075  
     axis 0 0 20  XYZ
    dof rx ry rz
    limits (-160.0 20.0)
           (-70.0 70.0)
           (-60.0 70.0)
  end
  begin
     id 3 
     name ltibia
     direction 0.34202 -0.939693 0   
     length 7.91399   
     axis 0 0 20   XYZ
    dof rx
    limits (-10.0 170.0)
  end
  begin
     id 4 
     name lfoot
     direction 0.0705293 -0.193778 0.978507   
     length 2.13618   
     axis -90 7.62852e-016 20   XYZ
    dof rx rz
    limits (-45.0 90.0)
           (-70.0 20.0)
  end
  begin
     id 5 
     name ltoes
     direction 1.53592e-011 -4.21925e-011 1   
     length 1.07518   
     axis -90 7.62852e-016 20   XYZ
    dof rx
    limits (-90.0 20.0)
  end
  begin
     id 6 
     name rhipjoint
     direction -0.57 -0.782963 0.249136   
     length 2.4047  
     axis 0 0 0  XYZ 
  end
  begin
     id 7 
     name rfemur
     direction -0.34202 -0.939693 0   
     length 7.51486   
     axis 0 0 -20   XYZ
    dof rx ry rz
    limits (-160.0 20.0)
           (-70.0 70.0)
           (-70.0 60.0)
  end
  begin
     id 8 
     name rtibia
     direction -0.34202 -0.939693 0   
     length 8.08317   
     axis 0 0 -20   XYZ
    dof rx
    limits (-10.0 170.0)
 end
 begin
     id 9 
     name rfoot
     direction -0.104954 -0.281256 0.953876   
     length 2.30343  
     axis -90 -7.62852e-016 -20   XYZ
    dof rx rz
    limits (-45.0 90.0)
           (-20.0 70.0)
  end
  begin
     id 10 
     name rtoes
     direction -1.53556e-011 -4.21922e-011 1   
     length 1.14803   
     axis -90 -7.62852e-016 -20   XYZ
    dof rx
    limits (-90.0 20.0)
  end
  begin
     id 11 
     name lowerback
     direction -0.0152855 0.99353 -0.11254   
     length 2.05311   
     axis 0 0 0   XYZ
    dof rx ry rz
    limits (-20.0 45.0)
           (-30.0 30.0)
           (-30.0 30.0)
  end
  begin
     id 12 
     name upperback
     direction -0.00157509 0.999443 -0.033332   
     length 2.06353   
     axis 0 0 0   XYZ
    dof rx ry rz
    limits (-20.0 45.0)
           (-30.0 30.0)
           (-30.0 30.0)
  end
  begin
     id 13 
     name thorax
     direction 0.00577788 0.999804 0.0189484   
     length 2.08472   
     axis 0 0 0   XYZ
    dof rx ry rz
    limits (-20.0 45.0)
           (-30.0 30.0)
           (-30.0 30.0)
  end
  begin
     id 14 
     name lowerneck
     direction -1.09301e-005 0.994719 0.10264   
     length 1.76249   
     axis 0 0 0   XYZ
    dof rx ry rz
    limits (-20.0 45.0)
           (-30.0 30.0)
           (-30.0 30.0)
  end
  begin
     id 15 
     name upperneck
     direction 0.0495018 0.988526 -0.142706   
     length 1.77897   
     axis 0 0 0   XYZ
    dof rx ry rz
    limits (-20.0 45.0)
           (-30.0 30.0)
           (-30.0 30.0)
  end
  begin
     id 16
     name head
     direction 0.0142736 0.998114 -0.0597101  
     length 1.78934  
     axis 0 0 0   XYZ
    dof rx ry rz
    limits (-20.0 45.0)
           (-30.0 30.0)
           (-30.0 30.0)
  end
  begin
     id 17 
     name lclavicle
     direction 0.918111 0.396107 -0.0130883  
     length 3.37276  
     axis 0 0 0   XYZ
    dof ry rz
    limits (-20.0 10.0)
           (0.0 20.0)
  end
  begin
     id 18 
     name lhumerus
     direction 1 -4.48975e-011 -3.26108e-027   
     length 5.34298   
     axis 180 -30 -90   XYZ
    dof rx ry rz
    limits (-60.0 90.0)
           (-90.0 90.0)
           (-90.0 90.0)
  end
  begin
     id 19
     name lradius
     direction 1 -4.48964e-011 -8.84413e-028   
     length 3.67262   
     axis 180 -30 -90   XYZ
    dof rx
    limits (-10.0 170.0)
  end
  begin
     id 20
     name lwrist
     direction 1 -4.48991e-011 -1.24264e-027   
     length 1.83631   
     axis -2.17013e-015 90 90   XYZ
    dof ry
    limits (-180.0 0.0)
 end
  begin
     id 21 
     name lhand
     direction 1 -4.48855e-011 -2.48528e-027   
     length 0.599298   
     axis 1.58582e-015 90 90   XYZ
    dof rx rz
    limits (-90.0 90.0)
           (-45.0 45.0)
  end
  begin
     id 22 
     name lfingers
     direction 1 -4.48811e-011 -4.97056e-027   
     length 0.48317   
     axis 3.17164e-015 90 90   XYZ
    dof rx
    limits (0.0 90.0)
  end
  begin
     id 23
     name lthumb
     direction 0.707107 -6.34882e-011 0.707107   
     length 0.693738   
     axis -90 45 2.85299e-015   XYZ
    dof rx rz
    limits (-45.0 45.0)
           (-45.0 45.0)
  end
  begin
     id 24 
     name rclavicle
     direction -0.920511 0.384752 -0.0680135   
     length 3.43787  
     axis 0 0 0   XYZ 
    dof ry rz
    limits (-10.0 20.0)
           (-20.0 0.0)
  end
  begin
     id 25 
     name rhumerus
     direction -0.999976 -0.00330524 0.00603274  
     length 5.5498   
     axis 180 30 90   XYZ
    dof rx ry rz
    limits (-90.0 60.0)
           (-90.0 90.0)
           (-90.0 90.0)
  end
  begin
     id 26 
     name rradius
     direction -1 -4.48967e-011 8.62438e-027   
     length 3.69401   
     axis 180 30 90   XYZ
    dof rx
    limits (-10.0 170.0)
  end
  begin
     id 27 
     name rwrist
     direction -1 -4.4897e-011 9.54866e-027   
     length 1.84701   
     axis -7.69462e-015 -90 -90   XYZ
    dof ry
    limits (-180.0 0.0)
  end
  begin
     id 28
     name rhand
     direction -1 -4.48982e-011 1.90973e-026   
     length 0.638113   
     axis -1.21857e-014 -90 -90   XYZ
    dof rx rz
    limits (-90.0 90.0)
           (-45.0 45.0)
  end
  begin
     id 29
     name rfingers
     direction -1 -4.48936e-011 3.81946e-026   
     length 0.514463   
     axis -2.43714e-014 -90 -90   XYZ
    dof rx
    limits (0.0 90.0)
  end
  begin
     id 30
     name rthumb
     direction -0.707107 -6.34942e-011 0.707107   
     length 0.738669   
     axis -90 -45 -2.85299e-015   XYZ
    dof rx rz
    limits (-45.0 45.0)
           (-45.0 45.0)
  end
:hierarchy
  begin
    root lhipjoint rhipjoint lowerback
    lhipjoint lfemur
    lfemur ltibia
    ltibia lfoot
    lfoot ltoes
    rhipjoint rfemur
    rfemur rtibia
    rtibia rfoot
    rfoot rtoes
    lowerback upperback
    upperback thorax
    thorax lowerneck lclavicle rclavicle
    lowerneck upperneck
    upperneck head
    lclavicle lhumerus
    lhumerus lradius
    lradius lwrist
    lwrist lhand lthumb
    lhand lfingers
    rclavicle rhumerus
    rhumerus rradius
    rradius rwrist
    rwrist rhand rthumb
    rhand rfingers
  end

#!OML:ASF F:\twosubjects\two\Thursday\Session 1\Rory.ASF
:FULLY-SPECIFIED
:DEGREES
146
root 7.4552 10.7132 7.3912 168.753 -4.20198 -177.607
lowerback 29.0508 0.787124 0.196001
upperback 10.1094 -1.73188 -1.87288
thorax -4.71128 -1.92217 -1.53262
lowerneck -9.59047 -3.19425 -3.82604
upperneck 3.20545 -4.08904 4.282
head 2.91975 -1.95045 1.85065
rclavicle 1.03368e-014 3.49861e-014
rhumerus 17.3112 10.8279 -84.3887
rradius 70.9329
rwrist 28.7574
rhand -16.5607 26.1376
rfingers 7.12502
rthumb 9.6592 -3.62092
lclavicle 1.03368e-014 3.49861e-014
lhumerus 21.5959 -23.9909 68.6302
lradius 72.8132
lwrist -26.0184
lhand -20.1057 23.7373
lfingers 7.12502
lthumb 6.23774 53.6254
rfemur -63.6729 -17.7485 -4.95697
rtibia 109.041
rfoot -20.8756 -2.92332
rtoes -23.4225
lfemur -59.2893 24.4665 9.96857
ltibia 113.995
lfoot -26.9066 -5.67958
ltoes -14.2866
147
root 7.46219 10.712 7.40444 168.699 -4.11412 -177.006
lowerback 29.0582 0.600961 0.809263
upperback 9.964 -1.74724 -1.80739
thorax -4.88212 -1.902 -1.80592
lowerneck -9.76093 -3.17119 -3.66506
upperneck 3.52048 -4.07586 4.24732
head 3.05353 -1.93803 1.80993
rclavicle -8.74653e-015 -2.14687e-014
rhumerus 17.2027 11.0761 -84.36
rradius 70.732
rwrist 28.4434
rhand -16.5476 25.6031
rfingers 7.12502
rthumb 9.67186 -4.15488
lclavicle -8.74653e-015 -2.14687e-014
lhumerus 21.342 -24.0675 68.5284
lradius 72.9343
lwrist -26.0423
lhand -20.2099 23.3371
lfingers 7.12502
lthumb 6.13715 53.2282
rfemur -63.7654 -17.5977 -4.13424
rtibia 109.052
rfoot -20.7941 -3.14843
rtoes -23.0588
lfemur -59.4087 24.6326 10.7121
ltibia 113.969
lfoot -26.7007 -5.83096
ltoes -14.7023
148
root 7.47072 10.7098 7.41794 168.595 -4.01391 -176.581
lowerback 29.0067 0.521642 0.970073
upperback 9.90296 -1.76538 -1.60902
thorax -4.92277 -1.90245 -1.67377
lowerneck -9.94162 -3.19337 -3.57408
upperneck 3.76049 -4.1039 4.08248
head 3.16366 -1.95222 1.73544
rclavicle -3.97569e-016 -1.11319e-014
rhumerus 17.2719 11.5303 -84.1682
rradius 70.4596
rwrist 28.2128
rhand -16.7348 25.2355
rfingers 7.12502
rthumb 9.49128 -4.53071
lclavicle -3.97569e-016 -1.11319e-014
lhumerus 20.6305 -23.6142 69.1354
lradius 73.2805
lwrist -26.507
lhand -19.6364 23.3249
lfingers 7.12502
lthumb 6.69083 53.1992
rfemur -63.7758 -17.5627 -3.51951
rtibia 109.05
rfoot -20.7875 -3.21537
rtoes -22.9186
lfemur -59.4224 24.7246 11.3019
ltibia 113.943
lfoot -26.5171 -5.93326
ltoes -14.9284
149
root 7.48297 10.7029 7.43238 168.676 -3.85041 -175.876
lowerback 28.6303 0.408936 1.34436
upperback 9.85823 -1.74252 -1.3115
thorax -4.79029 -1.87314 -1.57716
lowerneck -10.0082 -3.17955 -3.6108
upperneck 3.9905 -4.07504 4.00309
head 3.25337 -1.93807 1.71723
rclavicle 3.97569e-016 -2.3059e-014
rhumerus 17.4056 11.9628 -84.0248
rradius 70.2045
rwrist 28.2379
rhand -17.1577 25.3733
rfingers 7.12502
rthumb 9.08316 -4.41112
lclavicle 3.97569e-016 -2.3059e-014
lhumerus 19.7529 -22.5895 70.6457
lradius 73.2488
lwrist -27.6191
lhand -18.8822 22.8368
lfingers 7.12502
lthumb 7.41882 52.6867
rfemur -64.0815 -17.4011 -2.50241
rtibia 109.085
rfoot -20.7402 -3.33274
rtoes -22.6057
lfemur -59.7368 25.0886 12.1701
ltibia 113.939
lfoot -26.1914 -6.11525
ltoes -14.6795
150
root 7.49063 10.6933 7.44173 168.569 -3.76269 -175.813
lowerback 28.498 0.355611 1.29674
upperback 9.79367 -1.79889 -1.31827
thorax -4.80295 -1.89094 -1.54112
lowerneck -9.86351 -3.05536 -3.55
upperneck 4.2325 -3.91813 3.9465
head 3.29911 -1.85959 1.699
rclavicle 1.59028e-014 2.78299e-014
rhumerus 17.1328 12.4628 -84.0295
rradius 70.2204
rwrist 28.1851
rhand -17.5427 25.0601
rfingers 7.12502
rthumb 8.71163 -4.74012
lclavicle 1.59028e-014 2.78299e-014
lhumerus 19.5567 -23.169 69.6047
lradius 73.9101
lwrist -26.4249
lhand -19.1196 23.9768
lfingers 7.12502
lthumb 7.18974 53.8347
rfemur -64.0078 -17.3825 -2.36239
rtibia 109.099
rfoot -20.8052 -3.3284
rtoes -22.8643
lfemur -59.679 25.1911 12.3626
ltibia 113.963
lfoot -26.0375 -6.33252
ltoes -13.8915
